<svg xmlns="http://www.w3.org/2000/svg" viewBox="0 0 32 32">
  <defs>
    <linearGradient id="bg" x1="0%" y1="0%" x2="100%" y2="100%">
      <stop offset="0%" style="stop-color:#0a0f1a"/>
      <stop offset="100%" style="stop-color:#1a1f3a"/>
    </linearGradient>
    <linearGradient id="gold" x1="0%" y1="0%" x2="100%" y2="100%">
      <stop offset="0%" style="stop-color:#d4a574"/>
      <stop offset="100%" style="stop-color:#c9a869"/>
    </linearGradient>
  </defs>
  <!-- Background circle -->
  <circle cx="16" cy="16" r="15" fill="url(#bg)" stroke="url(#gold)" stroke-width="1"/>
  <!-- Main star (8-pointed) -->
  <path d="M16 4 L17.5 12 L16 10 L14.5 12 Z" fill="url(#gold)"/>
  <path d="M16 28 L17.5 20 L16 22 L14.5 20 Z" fill="url(#gold)"/>
  <path d="M4 16 L12 14.5 L10 16 L12 17.5 Z" fill="url(#gold)"/>
  <path d="M28 16 L20 14.5 L22 16 L20 17.5 Z" fill="url(#gold)"/>
  <!-- Diagonal rays -->
  <path d="M7.5 7.5 L12 11 L10.5 10.5 L11 12 Z" fill="url(#gold)" opacity="0.8"/>
  <path d="M24.5 7.5 L20 11 L21.5 10.5 L21 12 Z" fill="url(#gold)" opacity="0.8"/>
  <path d="M7.5 24.5 L12 21 L10.5 21.5 L11 20 Z" fill="url(#gold)" opacity="0.8"/>
  <path d="M24.5 24.5 L20 21 L21.5 21.5 L21 20 Z" fill="url(#gold)" opacity="0.8"/>
  <!-- Center circle -->
  <circle cx="16" cy="16" r="4" fill="url(#gold)"/>
  <circle cx="16" cy="16" r="2.5" fill="url(#bg)"/>
  <!-- Small stars -->
  <circle cx="10" cy="8" r="0.8" fill="#d4a574" opacity="0.7"/>
  <circle cx="23" cy="11" r="0.6" fill="#d4a574" opacity="0.6"/>
  <circle cx="8" cy="21" r="0.5" fill="#d4a574" opacity="0.5"/>
</svg>
